<svg width="182" height="169" viewBox="0 0 182 169" fill="none" xmlns="http://www.w3.org/2000/svg">
<mask id="path-1-inside-1_95_3257" fill="white">
<path d="M174.18 60.5996L172.488 61.0082L169.81 59.2247L168.025 59.8935L165.347 60.5623L162.669 59.6706L160.884 57.8871L158.884 57.2183L157.099 56.5495L155.983 58.11L154.644 57.887L152.413 56.5494L151.966 54.7659L149.735 52.9917L147.959 51.4313L145.95 52.1V53.8834V55.4348V57.4411L145.058 59.2245L144.834 62.1228L143.272 61.4539L141.041 62.1228H138.586L136.577 63.4604L134.801 62.1228L133.016 61.4539L130.115 60.3394L127.66 60.5623L125.875 61.454L124.759 64.1292L123.206 65.6899L120.528 66.7953L117.627 67.0182H115.618L112.717 65.2442H111.611L110.718 66.7954H109.379L106.032 65.9128L103.354 67.6871L98.6763 66.5723L96.2215 67.4641V64.7983V61.9L96.891 59.0021L99.1227 57.8872L101.791 54.9893L101.122 52.992L99.569 52.3232L97.7837 50.9856H95.1057L92.2045 48.9792L88.4107 43.183L87.081 44.7435L83.5104 44.5206L82.3945 42.3005H80.6092L79.4934 44.5206L69.6834 43.6288L70.576 40.74L76.5922 41.1856L75.6996 39.1792L77.0386 36.9498L74.593 35.6122L73.4772 31.1536L73.9232 29.1565L73.0306 25.8125L69.2368 21.7997L65.4429 21.1309L63.8808 18.0191L62.3279 16.4586L60.3194 17.3503L58.9804 12.4458L58.0878 9.77059L59.4268 7.98713L58.9807 4.65242H55.8564L54.9637 1.53136V0.55603L54.6476 1.38274L51.6069 9.51979L49.0312 18.883L47.7015 25.2087L46.7438 26.3977L45.4141 27.02H43.7496L41.6575 26.4999L40.086 24.93L37.6591 23.8339L36.6083 40.0988L35.3251 55.4161L33.6514 61.9276L32.6565 64.2127L31.0385 66.3956L29.3741 67.6867L26.5659 68.9686L22.8929 70.0647L21.1355 70.3433L19.75 70.3909L16.8489 70.4385L11.4185 67.9677L9.66093 66.8233L6.71328 63.4513L3.89596 65.4948L3.14263 67.399L0.567068 79.902L1.28306 81.5181L3.04049 83.088L4.61195 85.0851L5.90445 87.7045L6.23005 90.8906L5.42107 94.1697L3.37538 96.2226L0.855469 99.4549L0 101.684L1.19022 112.153L5.37458 116.76L10.1819 125.036L13.2319 132.366L14.757 136.833L15.6122 140.354L14.4221 153.191L13.5666 154.956L12.2276 156.377L11.1862 158.523L12.2276 162.991L12.5156 163.038L13.8546 163.707L15.9469 164.85L21.5168 168.556L39.3235 151.056L40.4208 148.91L40.895 147.247L41.4157 144.637L40.1787 142.594L37.7983 141.405L35.3249 134.698L43.4149 122.325L45.3676 120.003L46.1298 112.293L45.2281 110.584L40.9415 110.203L39.4627 108.392L45.7024 100.598L54.9823 99.2145L57.837 100.784L60.701 102.642L63.1279 104.063L72.4079 106.302L78.1727 106.163L82.3106 111.011L84.2168 115.674L88.4014 121.666L91.4978 123.57L92.9295 124.136L95.2173 124.517L97.6442 125.131L99.3551 125.994L105.167 130.983L105.976 133.026L108.161 135.738L109.593 136.742L119.784 138.451L128.162 137.643L130.161 137.076L132.495 137.977L134.68 141.163V144.684L134.392 147.294L134.252 150.099L134.54 152.105L135.87 157.14L136.726 158.858L139.152 160.614L140.25 158.422L141.152 156.285L142.249 155.096L148.246 152.245L152.673 149.913L153.816 148.817L154.867 145.919L161.915 144.396L177.574 144.061L181.907 144.777L182 141.498L175.435 125.419L173.482 121.619L172.581 117.625L170.963 113.77L169.67 109.581L169.531 106.395L169.958 103.59L171.195 102.113L173.529 100.357L174.533 89.3684L173.864 87.3713L172.004 84.854L170.581 82.6154L168.582 76.1039L169.484 73.2522L171.865 70.4934L173.055 66.7779L174.18 60.5996Z"/>
</mask>
<path d="M174.18 60.5996L172.488 61.0082L169.81 59.2247L168.025 59.8935L165.347 60.5623L162.669 59.6706L160.884 57.8871L158.884 57.2183L157.099 56.5495L155.983 58.11L154.644 57.887L152.413 56.5494L151.966 54.7659L149.735 52.9917L147.959 51.4313L145.95 52.1V53.8834V55.4348V57.4411L145.058 59.2245L144.834 62.1228L143.272 61.4539L141.041 62.1228H138.586L136.577 63.4604L134.801 62.1228L133.016 61.4539L130.115 60.3394L127.66 60.5623L125.875 61.454L124.759 64.1292L123.206 65.6899L120.528 66.7953L117.627 67.0182H115.618L112.717 65.2442H111.611L110.718 66.7954H109.379L106.032 65.9128L103.354 67.6871L98.6763 66.5723L96.2215 67.4641V64.7983V61.9L96.891 59.0021L99.1227 57.8872L101.791 54.9893L101.122 52.992L99.569 52.3232L97.7837 50.9856H95.1057L92.2045 48.9792L88.4107 43.183L87.081 44.7435L83.5104 44.5206L82.3945 42.3005H80.6092L79.4934 44.5206L69.6834 43.6288L70.576 40.74L76.5922 41.1856L75.6996 39.1792L77.0386 36.9498L74.593 35.6122L73.4772 31.1536L73.9232 29.1565L73.0306 25.8125L69.2368 21.7997L65.4429 21.1309L63.8808 18.0191L62.3279 16.4586L60.3194 17.3503L58.9804 12.4458L58.0878 9.77059L59.4268 7.98713L58.9807 4.65242H55.8564L54.9637 1.53136V0.55603L54.6476 1.38274L51.6069 9.51979L49.0312 18.883L47.7015 25.2087L46.7438 26.3977L45.4141 27.02H43.7496L41.6575 26.4999L40.086 24.93L37.6591 23.8339L36.6083 40.0988L35.3251 55.4161L33.6514 61.9276L32.6565 64.2127L31.0385 66.3956L29.3741 67.6867L26.5659 68.9686L22.8929 70.0647L21.1355 70.3433L19.75 70.3909L16.8489 70.4385L11.4185 67.9677L9.66093 66.8233L6.71328 63.4513L3.89596 65.4948L3.14263 67.399L0.567068 79.902L1.28306 81.5181L3.04049 83.088L4.61195 85.0851L5.90445 87.7045L6.23005 90.8906L5.42107 94.1697L3.37538 96.2226L0.855469 99.4549L0 101.684L1.19022 112.153L5.37458 116.76L10.1819 125.036L13.2319 132.366L14.757 136.833L15.6122 140.354L14.4221 153.191L13.5666 154.956L12.2276 156.377L11.1862 158.523L12.2276 162.991L12.5156 163.038L13.8546 163.707L15.9469 164.85L21.5168 168.556L39.3235 151.056L40.4208 148.91L40.895 147.247L41.4157 144.637L40.1787 142.594L37.7983 141.405L35.3249 134.698L43.4149 122.325L45.3676 120.003L46.1298 112.293L45.2281 110.584L40.9415 110.203L39.4627 108.392L45.7024 100.598L54.9823 99.2145L57.837 100.784L60.701 102.642L63.1279 104.063L72.4079 106.302L78.1727 106.163L82.3106 111.011L84.2168 115.674L88.4014 121.666L91.4978 123.57L92.9295 124.136L95.2173 124.517L97.6442 125.131L99.3551 125.994L105.167 130.983L105.976 133.026L108.161 135.738L109.593 136.742L119.784 138.451L128.162 137.643L130.161 137.076L132.495 137.977L134.68 141.163V144.684L134.392 147.294L134.252 150.099L134.54 152.105L135.87 157.14L136.726 158.858L139.152 160.614L140.25 158.422L141.152 156.285L142.249 155.096L148.246 152.245L152.673 149.913L153.816 148.817L154.867 145.919L161.915 144.396L177.574 144.061L181.907 144.777L182 141.498L175.435 125.419L173.482 121.619L172.581 117.625L170.963 113.77L169.67 109.581L169.531 106.395L169.958 103.59L171.195 102.113L173.529 100.357L174.533 89.3684L173.864 87.3713L172.004 84.854L170.581 82.6154L168.582 76.1039L169.484 73.2522L171.865 70.4934L173.055 66.7779L174.18 60.5996Z" stroke="white" stroke-width="2" mask="url(#path-1-inside-1_95_3257)"/>
</svg>
