<svg width="382" height="260" viewBox="0 0 382 260" fill="none" xmlns="http://www.w3.org/2000/svg">
<path d="M379.629 259.273C376.566 259.226 374.068 258.896 372.135 258.284C370.25 257.671 368.742 256.823 367.611 255.739C366.527 254.608 365.773 253.264 365.349 251.709C364.972 250.107 364.784 248.316 364.784 246.337V205.406L375.317 203.709V244.216C375.317 245.158 375.387 246.007 375.529 246.761C375.67 247.515 375.929 248.151 376.306 248.669C376.73 249.188 377.32 249.612 378.074 249.942C378.828 250.272 379.841 250.484 381.113 250.578L379.629 259.273Z" fill="white"/>
<path d="M356.624 239.904C356.624 242.826 356.2 245.512 355.352 247.962C354.504 250.366 353.278 252.44 351.676 254.183C350.074 255.88 348.141 257.2 345.879 258.142C343.664 259.085 341.166 259.556 338.386 259.556C335.652 259.556 333.155 259.085 330.893 258.142C328.678 257.2 326.769 255.88 325.166 254.183C323.564 252.44 322.315 250.366 321.42 247.962C320.524 245.512 320.077 242.826 320.077 239.904C320.077 236.982 320.524 234.319 321.42 231.915C322.362 229.512 323.635 227.462 325.237 225.765C326.887 224.069 328.819 222.749 331.034 221.807C333.296 220.864 335.747 220.393 338.386 220.393C341.072 220.393 343.523 220.864 345.738 221.807C348 222.749 349.932 224.069 351.534 225.765C353.137 227.462 354.386 229.512 355.281 231.915C356.177 234.319 356.624 236.982 356.624 239.904ZM345.879 239.904C345.879 236.652 345.219 234.107 343.9 232.269C342.627 230.384 340.789 229.441 338.386 229.441C335.982 229.441 334.121 230.384 332.801 232.269C331.482 234.107 330.822 236.652 330.822 239.904C330.822 243.155 331.482 245.747 332.801 247.68C334.121 249.565 335.982 250.507 338.386 250.507C340.789 250.507 342.627 249.565 343.9 247.68C345.219 245.747 345.879 243.155 345.879 239.904Z" fill="white"/>
<path d="M313.685 239.904C313.685 242.826 313.26 245.512 312.412 247.962C311.564 250.366 310.339 252.44 308.736 254.183C307.134 255.88 305.202 257.2 302.939 258.142C300.724 259.085 298.227 259.556 295.446 259.556C292.713 259.556 290.215 259.085 287.953 258.142C285.738 257.2 283.829 255.88 282.227 254.183C280.624 252.44 279.376 250.366 278.48 247.962C277.585 245.512 277.137 242.826 277.137 239.904C277.137 236.982 277.585 234.319 278.48 231.915C279.423 229.512 280.695 227.462 282.297 225.765C283.947 224.069 285.879 222.749 288.094 221.807C290.356 220.864 292.807 220.393 295.446 220.393C298.132 220.393 300.583 220.864 302.798 221.807C305.06 222.749 306.992 224.069 308.595 225.765C310.197 227.462 311.446 229.512 312.341 231.915C313.237 234.319 313.685 236.982 313.685 239.904ZM302.939 239.904C302.939 236.652 302.28 234.107 300.96 232.269C299.688 230.384 297.85 229.441 295.446 229.441C293.043 229.441 291.181 230.384 289.862 232.269C288.542 234.107 287.882 236.652 287.882 239.904C287.882 243.155 288.542 245.747 289.862 247.68C291.181 249.565 293.043 250.507 295.446 250.507C297.85 250.507 299.688 249.565 300.96 247.68C302.28 245.747 302.939 243.155 302.939 239.904Z" fill="white"/>
<path d="M237.276 258.566V205.406L247.809 203.709V221.524C248.516 221.288 249.412 221.076 250.495 220.888C251.627 220.652 252.71 220.534 253.747 220.534C256.763 220.534 259.261 220.958 261.241 221.807C263.267 222.608 264.869 223.762 266.048 225.27C267.273 226.779 268.121 228.569 268.593 230.643C269.111 232.717 269.37 235.026 269.37 237.571V258.566H258.837V238.843C258.837 235.45 258.389 233.047 257.494 231.633C256.646 230.219 255.043 229.512 252.687 229.512C251.744 229.512 250.849 229.606 250.001 229.795C249.199 229.936 248.469 230.101 247.809 230.29V258.566H237.276Z" fill="white"/>
<path d="M200.163 239.974C200.163 237.288 200.587 234.767 201.435 232.41C202.331 230.007 203.603 227.933 205.253 226.189C206.902 224.399 208.905 222.985 211.261 221.948C213.618 220.911 216.304 220.393 219.32 220.393C221.3 220.393 223.114 220.581 224.764 220.958C226.413 221.288 228.015 221.783 229.571 222.443L227.379 230.855C226.39 230.478 225.306 230.148 224.127 229.865C222.949 229.583 221.63 229.441 220.169 229.441C217.058 229.441 214.725 230.407 213.17 232.34C211.662 234.272 210.908 236.817 210.908 239.974C210.908 243.32 211.615 245.912 213.029 247.75C214.49 249.588 217.011 250.507 220.593 250.507C221.865 250.507 223.232 250.39 224.693 250.154C226.154 249.918 227.497 249.541 228.722 249.023L230.207 257.647C228.982 258.166 227.45 258.613 225.612 258.99C223.774 259.367 221.747 259.556 219.532 259.556C216.139 259.556 213.217 259.061 210.767 258.071C208.316 257.035 206.289 255.644 204.687 253.901C203.132 252.157 201.977 250.107 201.223 247.75C200.516 245.347 200.163 242.755 200.163 239.974Z" fill="white"/>
<path d="M174.853 250.154C176.408 250.154 177.681 250.036 178.67 249.8C179.707 249.518 180.532 249.164 181.145 248.74C181.757 248.269 182.181 247.727 182.417 247.114C182.653 246.502 182.771 245.818 182.771 245.064C182.771 243.462 182.017 242.142 180.508 241.105C179 240.021 176.408 238.867 172.732 237.642C171.13 237.076 169.528 236.44 167.925 235.733C166.323 234.979 164.886 234.06 163.613 232.976C162.341 231.845 161.304 230.502 160.503 228.946C159.702 227.344 159.301 225.412 159.301 223.15C159.301 220.888 159.725 218.861 160.573 217.07C161.422 215.232 162.623 213.677 164.179 212.405C165.734 211.132 167.619 210.166 169.834 209.506C172.049 208.799 174.547 208.446 177.327 208.446C180.626 208.446 183.478 208.799 185.881 209.506C188.285 210.213 190.264 210.991 191.819 211.839L188.638 220.534C187.271 219.827 185.74 219.215 184.043 218.696C182.394 218.131 180.391 217.848 178.034 217.848C175.395 217.848 173.486 218.225 172.308 218.979C171.177 219.686 170.612 220.793 170.612 222.301C170.612 223.197 170.824 223.951 171.248 224.564C171.672 225.176 172.261 225.742 173.015 226.26C173.816 226.731 174.712 227.179 175.701 227.603C176.738 227.98 177.869 228.381 179.095 228.805C181.64 229.748 183.855 230.69 185.74 231.633C187.625 232.528 189.18 233.589 190.405 234.814C191.678 236.039 192.62 237.477 193.233 239.126C193.846 240.776 194.152 242.778 194.152 245.135C194.152 249.706 192.55 253.264 189.345 255.809C186.14 258.307 181.31 259.556 174.853 259.556C172.685 259.556 170.729 259.415 168.986 259.132C167.242 258.896 165.687 258.59 164.32 258.213C163 257.836 161.846 257.435 160.856 257.011C159.914 256.587 159.112 256.186 158.453 255.809L161.563 247.044C163.024 247.845 164.815 248.575 166.936 249.235C169.104 249.848 171.743 250.154 174.853 250.154Z" fill="white"/>
<path d="M119.157 258.566V205.406L129.691 203.709V221.524C130.397 221.288 131.293 221.076 132.377 220.888C133.508 220.652 134.592 220.534 135.629 220.534C138.645 220.534 141.143 220.958 143.122 221.807C145.148 222.608 146.751 223.762 147.929 225.27C149.154 226.779 150.003 228.569 150.474 230.643C150.992 232.717 151.252 235.026 151.252 237.571V258.566H140.718V238.843C140.718 235.45 140.271 233.047 139.375 231.633C138.527 230.219 136.925 229.512 134.568 229.512C133.626 229.512 132.73 229.606 131.882 229.795C131.081 229.936 130.35 230.101 129.691 230.29V258.566H119.157Z" fill="white"/>
<path d="M82.0442 239.974C82.0442 237.288 82.4683 234.767 83.3166 232.41C84.2121 230.007 85.4845 227.933 87.134 226.189C88.7835 224.399 90.7864 222.985 93.1428 221.948C95.4992 220.911 98.1855 220.393 101.202 220.393C103.181 220.393 104.995 220.581 106.645 220.958C108.294 221.288 109.897 221.783 111.452 222.443L109.261 230.855C108.271 230.478 107.187 230.148 106.009 229.865C104.831 229.583 103.511 229.441 102.05 229.441C98.9395 229.441 96.6067 230.407 95.0515 232.34C93.5434 234.272 92.7893 236.817 92.7893 239.974C92.7893 243.32 93.4963 245.912 94.9101 247.75C96.3711 249.588 98.8924 250.507 102.474 250.507C103.747 250.507 105.113 250.39 106.574 250.154C108.035 249.918 109.378 249.541 110.604 249.023L112.088 257.647C110.863 258.166 109.331 258.613 107.493 258.99C105.655 259.367 103.629 259.556 101.414 259.556C98.0205 259.556 95.0986 259.061 92.648 258.071C90.1973 257.035 88.1708 255.644 86.5685 253.901C85.0132 252.157 83.8586 250.107 83.1046 247.75C82.3977 245.347 82.0442 242.755 82.0442 239.974Z" fill="white"/>
<path d="M40.7612 240.257C40.7612 236.958 41.2561 234.083 42.2458 231.633C43.2826 229.135 44.6257 227.061 46.2752 225.412C47.9247 223.762 49.8098 222.513 51.9305 221.665C54.0984 220.817 56.3134 220.393 58.5756 220.393C63.8539 220.393 68.0247 222.019 71.088 225.27C74.1513 228.475 75.683 233.211 75.683 239.479C75.683 240.092 75.6594 240.775 75.6123 241.53C75.5651 242.236 75.518 242.873 75.4709 243.438H51.5771C51.8127 245.606 52.826 247.326 54.6168 248.599C56.4077 249.871 58.8112 250.507 61.8274 250.507C63.7596 250.507 65.6447 250.342 67.4827 250.013C69.3678 249.636 70.8995 249.188 72.0777 248.669L73.4915 257.223C72.926 257.506 72.1719 257.789 71.2294 258.071C70.2868 258.354 69.2265 258.59 68.0483 258.778C66.9172 259.014 65.6919 259.202 64.3723 259.344C63.0527 259.485 61.7331 259.556 60.4135 259.556C57.0675 259.556 54.1455 259.061 51.6478 258.071C49.1971 257.082 47.1471 255.739 45.4976 254.042C43.8952 252.298 42.6935 250.248 41.8923 247.892C41.1383 245.535 40.7612 242.991 40.7612 240.257ZM65.5034 236.228C65.4562 235.332 65.2913 234.46 65.0085 233.612C64.7729 232.764 64.3723 232.01 63.8068 231.35C63.2883 230.69 62.605 230.148 61.7567 229.724C60.9555 229.3 59.9423 229.088 58.7169 229.088C57.5387 229.088 56.5255 229.3 55.6772 229.724C54.8289 230.101 54.122 230.619 53.5564 231.279C52.9909 231.939 52.5432 232.717 52.2133 233.612C51.9305 234.46 51.7185 235.332 51.5771 236.228H65.5034Z" fill="white"/>
<path d="M41.4638 209.577V218.979H26.6892V258.566H15.6613V218.979H0.886719V209.577H41.4638Z" fill="white"/>
<path d="M183.59 55.7797C185.819 56.6713 188.494 55.3339 189.162 52.882L204.988 5.84969C205.88 3.62067 204.543 0.945849 202.091 0.277143C199.862 -0.614465 197.187 0.722947 196.518 3.17487L180.692 50.2072C179.801 52.4362 181.138 55.111 183.59 55.7797Z" fill="white"/>
<path d="M246.894 67.8165V39.285L262.72 32.375C264.28 31.7063 265.395 30.146 265.395 28.3628C265.395 26.5796 264.503 25.0193 262.943 24.3506L222.375 4.28939C220.146 3.17488 217.471 4.28939 216.356 6.29551C215.242 8.52453 216.356 11.1994 218.363 12.3139L250.46 28.1399L218.585 41.9598C216.356 42.8514 215.242 45.5263 216.356 47.7553C217.248 49.9843 219.923 51.0988 222.152 49.9843L237.978 43.0743V64.9187L192.952 84.757L147.926 64.9187V43.0743L163.752 49.9843C165.981 50.8759 168.655 49.9843 169.547 47.7553C170.439 45.5263 169.547 42.8514 167.318 41.9598L135.443 28.1399L167.541 12.3139C169.77 11.1994 170.662 8.52453 169.547 6.29551C168.433 4.06649 165.758 3.17488 163.529 4.28939L122.961 24.3506C121.4 25.0193 120.509 26.8025 120.509 28.3628C120.509 30.146 121.623 31.7063 123.183 32.375L139.009 39.285V67.8165C139.009 69.5997 140.124 71.16 141.684 71.8287L191.169 93.6731C191.837 93.896 192.283 94.1189 192.952 94.1189C193.62 94.1189 194.066 94.1189 194.735 93.6731L244.219 71.8287C245.78 71.16 246.894 69.5997 246.894 67.8165Z" fill="white"/>
<path d="M272.082 116.409C271.413 115.517 270.522 115.072 269.184 114.849C265.841 114.18 263.835 113.288 262.943 111.951C262.497 111.505 262.274 110.614 262.274 108.83V90.5525C262.274 86.3173 261.16 83.1967 258.485 81.1906C256.479 79.6303 253.358 78.9616 249.346 78.9616H248.231C247.117 78.9616 246.002 79.4074 245.334 80.299C244.665 81.1906 244.219 82.0822 244.219 83.1967C244.219 84.3112 244.665 85.2028 245.557 86.0944C246.448 86.7631 247.34 87.2089 248.231 87.2089H249.569C251.575 87.2089 252.689 87.6547 253.135 88.3234C253.135 88.3234 253.358 88.7692 253.358 89.8837V109.053C253.358 111.728 254.027 113.957 255.587 115.963C256.702 117.301 258.039 118.415 259.599 119.307C257.816 120.198 256.479 121.313 255.587 122.65C254.25 124.434 253.358 126.885 253.358 129.337V148.507C253.358 148.73 253.358 149.176 253.358 149.399C253.358 149.844 253.135 150.29 252.467 150.513C251.798 150.736 250.906 150.959 249.346 150.959H248.009C246.894 150.959 246.002 151.405 245.111 152.073C244.442 152.965 243.996 153.857 243.996 154.971C243.996 156.086 244.442 157.2 245.334 157.869C246.225 158.538 247.117 158.983 248.009 158.983H249.123C250.683 158.983 252.467 158.983 253.804 158.538C256.479 158.092 258.485 156.977 259.822 154.971C261.16 153.188 261.828 150.736 261.828 147.615V129.337C261.828 127.554 262.051 126.44 262.72 125.771C263.166 125.325 263.835 124.879 264.726 124.434C265.618 123.988 267.178 123.542 268.961 123.319C270.076 123.319 270.967 122.65 271.636 121.759C272.305 120.867 272.528 119.976 272.528 118.861C272.528 117.746 272.305 116.632 271.636 115.74L272.082 116.409Z" fill="white"/>
<path d="M128.533 116.186C129.87 114.403 130.093 111.728 130.093 109.276V90.1067C130.093 89.8838 130.093 89.4379 130.093 89.215C130.093 88.7692 130.316 88.3234 130.985 88.1005C131.654 87.8776 132.545 87.6547 134.106 87.6547H135.443C136.558 87.6547 137.449 87.2089 138.341 86.5402C139.009 85.6486 139.455 84.757 139.455 83.6425C139.455 82.528 139.009 81.4135 138.118 80.7448C137.226 80.0761 136.335 79.6303 135.443 79.6303H134.329C132.768 79.6303 130.985 79.6303 129.648 80.0761C126.973 80.5219 124.967 81.6364 123.629 83.6425C122.292 85.4257 121.623 87.8776 121.623 90.9983V109.276C121.623 111.059 121.4 112.174 120.732 112.843C120.286 113.288 119.617 113.734 118.725 114.18C117.834 114.626 116.273 115.072 114.49 115.295C113.376 115.295 112.484 115.963 111.815 116.855C111.147 117.747 110.924 118.638 110.924 119.753C110.924 120.867 111.147 121.982 111.815 122.873C112.484 123.765 113.376 124.211 114.713 124.434C118.057 125.102 120.063 125.994 120.954 127.331C121.4 127.777 121.623 128.669 121.623 130.452V148.73C121.623 152.965 122.738 156.086 125.412 158.092C127.419 159.652 130.539 160.321 134.551 160.321H135.666C136.78 160.321 137.895 159.875 138.564 158.983C139.232 158.092 139.678 157.2 139.678 156.086C139.678 154.971 139.232 154.08 138.341 153.188C137.449 152.519 136.558 152.073 135.666 152.073H134.329C132.322 152.073 131.208 151.628 130.762 150.959C130.762 150.959 130.539 150.513 130.539 149.399V130.229C130.539 127.554 129.87 125.325 128.31 123.319C127.196 121.982 125.858 120.867 124.298 119.976C126.081 119.084 127.419 117.969 128.31 116.632L128.533 116.186Z" fill="white"/>
<path d="M161.745 136.024C167.285 136.024 171.776 128.54 171.776 119.307C171.776 110.074 167.285 102.589 161.745 102.589C156.206 102.589 151.715 110.074 151.715 119.307C151.715 128.54 156.206 136.024 161.745 136.024Z" fill="white"/>
<path d="M224.158 136.024C229.698 136.024 234.189 128.54 234.189 119.307C234.189 110.074 229.698 102.589 224.158 102.589C218.618 102.589 214.127 110.074 214.127 119.307C214.127 128.54 218.618 136.024 224.158 136.024Z" fill="white"/>
</svg>
