<svg width="208" height="206" viewBox="0 0 208 206" fill="none" xmlns="http://www.w3.org/2000/svg">
<path d="M93.2629 71.5902C96.1237 72.7345 99.5567 71.0181 100.415 67.8711L120.727 7.50776C121.871 4.64693 120.155 1.21395 117.008 0.355698C114.147 -0.788632 110.714 0.927862 109.856 4.07477L89.5438 64.4382C88.3995 67.299 90.116 70.732 93.2629 71.5902Z" fill="white"/>
<path d="M174.51 87.0387V50.4201L194.822 41.5516C196.825 40.6933 198.255 38.6908 198.255 36.4021C198.255 34.1134 197.111 32.1109 195.108 31.2526L143.041 5.5052C140.18 4.07479 136.747 5.5052 135.317 8.07994C133.887 10.9408 135.317 14.3738 137.892 15.8042L179.088 36.116L138.178 53.8531C135.317 54.9975 133.887 58.4304 135.317 61.2913C136.461 64.1521 139.894 65.5825 142.755 64.1521L163.067 55.2835V83.3196L105.278 108.781L47.4897 83.3196V55.2835L67.8015 64.1521C70.6623 65.2964 74.0953 64.1521 75.2397 61.2913C76.384 58.4304 75.2397 54.9975 72.3788 53.8531L31.4691 36.116L72.6649 15.8042C75.5258 14.3738 76.6701 10.9408 75.2397 8.07994C73.8093 5.21912 70.3763 4.07479 67.5154 5.5052L15.4485 31.2526C13.4459 32.1109 12.3015 34.3995 12.3015 36.4021C12.3015 38.6908 13.732 40.6933 15.7345 41.5516L36.0464 50.4201V87.0387C36.0464 89.3273 37.4768 91.3299 39.4794 92.1882L102.99 120.224C103.848 120.51 104.42 120.796 105.278 120.796C106.137 120.796 106.709 120.796 107.567 120.224L171.077 92.1882C173.08 91.3299 174.51 89.3273 174.51 87.0387Z" fill="white"/>
<path d="M206.838 149.405C205.979 148.26 204.835 147.688 203.118 147.402C198.827 146.544 196.252 145.399 195.108 143.683C194.536 143.111 194.25 141.967 194.25 139.678V116.219C194.25 110.784 192.819 106.778 189.387 104.204C186.812 102.201 182.807 101.343 177.657 101.343H176.227C174.796 101.343 173.366 101.915 172.508 103.059C171.649 104.204 171.077 105.348 171.077 106.778C171.077 108.209 171.649 109.353 172.794 110.497C173.938 111.356 175.082 111.928 176.227 111.928H177.943C180.518 111.928 181.948 112.5 182.521 113.358C182.521 113.358 182.807 113.93 182.807 115.361V139.964C182.807 143.397 183.665 146.258 185.667 148.832C187.098 150.549 188.814 151.979 190.817 153.124C188.528 154.268 186.812 155.698 185.667 157.415C183.951 159.704 182.807 162.851 182.807 165.997V190.601C182.807 190.887 182.807 191.459 182.807 191.745C182.807 192.317 182.521 192.889 181.662 193.175C180.804 193.461 179.66 193.747 177.657 193.747H175.941C174.51 193.747 173.366 194.32 172.222 195.178C171.363 196.322 170.791 197.466 170.791 198.897C170.791 200.327 171.363 201.758 172.508 202.616C173.652 203.474 174.796 204.046 175.941 204.046H177.371C179.374 204.046 181.662 204.046 183.379 203.474C186.812 202.902 189.387 201.472 191.103 198.897C192.819 196.608 193.678 193.461 193.678 189.456V165.997C193.678 163.709 193.964 162.278 194.822 161.42C195.394 160.848 196.252 160.276 197.397 159.704C198.541 159.131 200.544 158.559 202.832 158.273C204.263 158.273 205.407 157.415 206.265 156.271C207.124 155.126 207.41 153.982 207.41 152.552C207.41 151.121 207.124 149.691 206.265 148.546L206.838 149.405Z" fill="white"/>
<path d="M22.6005 149.119C24.317 146.83 24.6031 143.397 24.6031 140.25V115.647C24.6031 115.361 24.6031 114.789 24.6031 114.503C24.6031 113.93 24.8892 113.358 25.7474 113.072C26.6057 112.786 27.75 112.5 29.7526 112.5H31.4691C32.8995 112.5 34.0438 111.928 35.1881 111.07C36.0464 109.925 36.6185 108.781 36.6185 107.351C36.6185 105.92 36.0464 104.49 34.902 103.631C33.7577 102.773 32.6134 102.201 31.4691 102.201H30.0386C28.0361 102.201 25.7474 102.201 24.0309 102.773C20.5979 103.345 18.0232 104.776 16.3067 107.351C14.5902 109.639 13.732 112.786 13.732 116.791V140.25C13.732 142.539 13.4459 143.969 12.5876 144.827C12.0155 145.399 11.1572 145.972 10.0129 146.544C8.86855 147.116 6.86598 147.688 4.57732 147.974C3.14691 147.974 2.00258 148.832 1.14433 149.977C0.286083 151.121 0 152.265 0 153.696C0 155.126 0.286083 156.557 1.14433 157.701C2.00258 158.845 3.14691 159.418 4.8634 159.704C9.15464 160.562 11.7294 161.706 12.8737 163.423C13.4459 163.995 13.732 165.139 13.732 167.428V190.887C13.732 196.322 15.1624 200.327 18.5954 202.902C21.1701 204.905 25.1752 205.763 30.3247 205.763H31.7551C33.1856 205.763 34.616 205.191 35.4742 204.046C36.3325 202.902 36.9046 201.758 36.9046 200.327C36.9046 198.897 36.3325 197.753 35.1881 196.608C34.0438 195.75 32.8995 195.178 31.7551 195.178H30.0386C27.4639 195.178 26.0335 194.606 25.4613 193.747C25.4613 193.747 25.1752 193.175 25.1752 191.745V167.142C25.1752 163.709 24.317 160.848 22.3144 158.273C20.884 156.557 19.1675 155.126 17.1649 153.982C19.4536 152.838 21.1701 151.407 22.3144 149.691L22.6005 149.119Z" fill="white"/>
<path d="M123 174L139.438 153L123.479 132H135.329L145.671 146.712L155.877 132H167.521L151.562 152.941L168 174H156.151L145.329 159.288L134.164 174H123Z" fill="white"/>
<path d="M43 174L59.4384 153L43.4795 132H55.3288L65.6712 146.712L75.8767 132H87.5205L71.5616 152.941L88 174H76.1507L65.3288 159.288L54.1644 174H43Z" fill="white"/>
</svg>
