<svg width="108" height="169" viewBox="0 0 108 169" fill="none" xmlns="http://www.w3.org/2000/svg">
<mask id="path-1-inside-1_95_3255" fill="white">
<path d="M7.68003 152.567L7.03198 153.19L6.26404 153.262L5.35203 153.142L4.84797 153.262L4.17598 153.525L3.76802 153.74L2.54399 154.746L2.25601 154.698L1.728 154.387L0.552026 152.52L0.336035 152.113L0.143994 151.658L0 151.203L0.0960205 150.437L2.97598 149.001L3.38401 149.025L6.28799 150.485L6.62402 150.796L7.39197 151.634L7.68003 152.567ZM49.2959 102.495L49.224 104.075L48.576 103.955L48.264 102.735L48.096 102.28L47.88 101.873L47.352 101.442L44.16 99.7668L43.704 99.5752L42.6 99.336L42.12 99.0008L41.184 96.3441L41.28 95.8893L41.832 95.6739L42.624 95.5781L43.8 95.5542L44.616 95.7457L45.264 96.2244L49.2959 102.495ZM33.24 70.4464L32.568 71.3798H31.608L30.744 70.7575L30.048 70.5421L29.52 71.4995L30.696 72.792L33.72 73.869L34.608 73.1749L36 72.2175L39.6 69.9916L42.96 69.5368L43.968 69.6565L46.344 71.2601L45.576 77.2439L48.192 81.3368L47.6399 82.8447L46.704 83.2037L46.464 84.209L46.872 85.4775L49.176 87.0333L50.064 87.2487L50.9281 89.8816L50.544 91.5331L50.112 92.5623L46.536 93.4L44.664 93.1368L43.848 93.2086L41.52 94.4532L40.752 94.9319L40.2 95.8175L39.96 99.695L41.04 100.82L41.952 101.299L42.504 101.921L38.808 103.453L36.912 101.753L37.56 99.9343L36.456 100.269L35.544 102.112L35.952 106.325L42.384 112.763L44.04 113.338L45.912 114.678L46.488 115.301L46.968 117.766L46.704 118.819L44.064 119.25L42.768 119.13L41.64 119.753L41.328 121.548L42.384 122.864L44.136 124.276L44.328 124.994L45.504 127.244L46.392 128.489L46.8 129.925L46.008 130.595L38.352 129.925L36.96 130.475L37.464 134.377L38.28 135.31L39.24 135.98L39.864 137.656L39.168 141.797L38.496 142.084L33.984 143.113L32.784 142.204L31.872 141.318L30.984 141.031L27.816 140.887L24.216 140.408L19.824 139.14L16.776 137.512L16.152 136.986L15.576 136.004L18.048 129.638L21.288 125.688L20.808 124.181L21.864 123.151L23.352 119.346L24.48 108.312L24.288 105.056L23.64 102.663L23.04 102.16L22.2 101.562L22.8 97.6605L23.496 89.3072L23.832 88.4934L24.48 87.5359L25.176 86.6503L26.784 85.0946L27.84 81.5043L28.992 74.611L27.672 71.9543L27.288 70.9729L27.312 70.0634L28.44 68.2683L32.424 68.6273L33.24 70.4464ZM37.944 0.55603L48.192 1.41773L50.208 4.74466L53.544 5.41484L58.896 1.41773L64.248 3.4043L67.5839 9.38806L72.264 12.7151L78.264 18.0525L84.936 20.7094L88.944 16.042L91.608 12.0449L96.9601 11.3747L103.176 12.2124L103.056 14.1033L103.104 15.324L102.432 17.2388L101.76 18.1961L101.04 18.9382L100.008 19.8238L99.336 20.9726L100.56 24.515L102.744 29.2781L103.152 31.2168L102.432 33.73L103.08 35.8602L102.36 44.0939L102.216 45.1949L101.616 46.4635L101.088 49.2878L101.28 50.6521L102.144 52.7344L102.744 58.0241L101.304 60.4894L100.536 61.375V62.6675L102.72 67.8613L104.856 72.1697L105.216 73.3425L105.696 76.0232L105.816 78.4646L106.776 79.8288L106.944 82.8207L105.216 84.4244L100.776 86.5307L99.72 86.3392L99.3839 85.1664L98.9041 84.3766L97.8 84.1612L96.9839 84.592L96.264 85.2861L93.12 91.5331L93.8399 92.9213L95.6161 94.4532L96.024 95.3627L93.744 102.615L93.2399 103.572L92.9281 104.578L92.7839 105.559L93.144 109.149L93.744 111.543L93.864 113.386L94.032 117.742L93.936 118.987L93.624 120.495L93.192 121.524L92.952 122.433L92.832 124.731L93.456 126.287L94.824 128.585L95.688 129.327L97.512 130.116L98.88 130.092L99.8399 130.14L101.976 130.356L103.08 130.643L106.344 132.653L106.56 137.417L106.32 138.302L105.672 138.757L104.424 138.446L100.992 139.595L99.8399 142.467L99.648 145.578L102.6 147.78L107.616 152.52L108 155.535L107.568 156.612L105.408 158.049L104.736 158.312L104.016 158.719V160.083L105.768 162.716L107.736 164.942L105.168 163.745L104.016 163.793L99.2161 166.139L98.736 168.029L93.9601 168.556L93.696 166.713L93.0721 165.445L91.944 164.008L90.936 163.314L89.4 163.171L88.68 162.859L86.064 158.503L85.896 156.517L84.264 155.87L83.136 156.66L81.6721 158.168L80.544 159.844L80.064 161.711L73.464 160.586L71.3281 160.035L70.632 159.485L68.376 159.437V157.498L67.8481 159.102L67.2721 159.054L66.408 158.719L65.112 157.354L63.408 157.69L61.92 158.719L61.776 157.091L62.0161 151.586L59.736 146.153L59.4 145.076L60.576 139.068L61.2959 138.23L62.6161 137.345L63.6 136.746L64.392 136.292L65.088 136.052L66.288 135.526L66.2399 132.127L65.6399 130.164L65.9041 129.015L67.2721 126.478L68.4959 125.09L69.624 125.138L72.024 126.765L72.12 120.471L71.064 119.154L70.056 118.532L69.0721 117.527L68.544 116.186L68.064 113.482L68.0161 111.016L68.1839 104.506L69.3839 101.466L70.152 101.155L73.2 101.323L74.1839 101.514L74.9041 102.447L77.568 104.195L78.576 104.482L79.008 103.908L78.144 102.495L76.536 102.065L75.432 101.538L74.064 100.413L68.4481 91.7007L70.1041 89.738L71.7839 88.5173L76.8 86.9137L77.88 87.512L78.864 89.3072L78.8399 90.3124L81.936 99.288L82.536 99.7428L83.0161 98.9051L82.7281 95.4824L81.5281 89.4029L81.0721 87.4402L80.6399 84.0893L80.712 82.8207L80.9281 81.0735L81.168 79.8528L81.48 78.704L81.576 77.2439L80.952 76.7652L79.488 76.7891L78.312 78.1295L76.08 79.4459L71.7839 78.7997L69.144 77.3635L67.7281 75.353L68.0161 74.1802L69.8399 71.2841L75 66.0423L76.4161 66.0902L77.568 66.3295L81.0959 65.4918L83.4959 64.295L85.392 62.5957L85.992 61.8537L86.7601 52.7823L85.512 53.2371L84.312 61.3271L83.544 62.7632L81.0959 63.9839L77.592 65.1328L76.4399 65.1567L75.648 64.8216L74.28 63.7446L73.2721 60.7048L72.12 59.0772L69.864 56.3965L68.544 55.6545L65.4 54.8646L62.7839 55.6545L61.656 56.1332L59.544 59.4602L60.024 61.2553L60.6721 61.8537L61.152 64.5104L58.752 67.0237L56.4959 68.723L55.344 68.9145L52.944 68.364L51.8399 68.005L49.5839 68.0768L48.912 68.364L47.256 69.1538L46.344 69.465L45.768 69.489L43.584 68.1007L39.528 67.2869L37.752 67.1911L38.28 63.7206L39.816 61.3989L40.44 60.9681L41.568 60.9202L42.696 61.0877L43.968 60.7048L46.2 56.5641L45.144 57.5693L44.448 59.1251L43.776 60.0346L42.792 60.3458L38.688 59.9388L36.6 58.5985L33.432 54.745L33.36 53.0695L33.984 51.6095L33.864 48.5697L33.456 46.8225L32.28 43.5194L31.2 42.1551L30.672 41.0063L29.976 36.6979L29.232 31.6477L30.864 26.741L34.776 16.2096L36.336 14.1751L37.728 11.1832L37.464 9.53167L36.504 7.09032L37.944 0.55603Z"/>
</mask>
<path d="M7.68003 152.567L7.03198 153.19L6.26404 153.262L5.35203 153.142L4.84797 153.262L4.17598 153.525L3.76802 153.74L2.54399 154.746L2.25601 154.698L1.728 154.387L0.552026 152.52L0.336035 152.113L0.143994 151.658L0 151.203L0.0960205 150.437L2.97598 149.001L3.38401 149.025L6.28799 150.485L6.62402 150.796L7.39197 151.634L7.68003 152.567ZM49.2959 102.495L49.224 104.075L48.576 103.955L48.264 102.735L48.096 102.28L47.88 101.873L47.352 101.442L44.16 99.7668L43.704 99.5752L42.6 99.336L42.12 99.0008L41.184 96.3441L41.28 95.8893L41.832 95.6739L42.624 95.5781L43.8 95.5542L44.616 95.7457L45.264 96.2244L49.2959 102.495ZM33.24 70.4464L32.568 71.3798H31.608L30.744 70.7575L30.048 70.5421L29.52 71.4995L30.696 72.792L33.72 73.869L34.608 73.1749L36 72.2175L39.6 69.9916L42.96 69.5368L43.968 69.6565L46.344 71.2601L45.576 77.2439L48.192 81.3368L47.6399 82.8447L46.704 83.2037L46.464 84.209L46.872 85.4775L49.176 87.0333L50.064 87.2487L50.9281 89.8816L50.544 91.5331L50.112 92.5623L46.536 93.4L44.664 93.1368L43.848 93.2086L41.52 94.4532L40.752 94.9319L40.2 95.8175L39.96 99.695L41.04 100.82L41.952 101.299L42.504 101.921L38.808 103.453L36.912 101.753L37.56 99.9343L36.456 100.269L35.544 102.112L35.952 106.325L42.384 112.763L44.04 113.338L45.912 114.678L46.488 115.301L46.968 117.766L46.704 118.819L44.064 119.25L42.768 119.13L41.64 119.753L41.328 121.548L42.384 122.864L44.136 124.276L44.328 124.994L45.504 127.244L46.392 128.489L46.8 129.925L46.008 130.595L38.352 129.925L36.96 130.475L37.464 134.377L38.28 135.31L39.24 135.98L39.864 137.656L39.168 141.797L38.496 142.084L33.984 143.113L32.784 142.204L31.872 141.318L30.984 141.031L27.816 140.887L24.216 140.408L19.824 139.14L16.776 137.512L16.152 136.986L15.576 136.004L18.048 129.638L21.288 125.688L20.808 124.181L21.864 123.151L23.352 119.346L24.48 108.312L24.288 105.056L23.64 102.663L23.04 102.16L22.2 101.562L22.8 97.6605L23.496 89.3072L23.832 88.4934L24.48 87.5359L25.176 86.6503L26.784 85.0946L27.84 81.5043L28.992 74.611L27.672 71.9543L27.288 70.9729L27.312 70.0634L28.44 68.2683L32.424 68.6273L33.24 70.4464ZM37.944 0.55603L48.192 1.41773L50.208 4.74466L53.544 5.41484L58.896 1.41773L64.248 3.4043L67.5839 9.38806L72.264 12.7151L78.264 18.0525L84.936 20.7094L88.944 16.042L91.608 12.0449L96.9601 11.3747L103.176 12.2124L103.056 14.1033L103.104 15.324L102.432 17.2388L101.76 18.1961L101.04 18.9382L100.008 19.8238L99.336 20.9726L100.56 24.515L102.744 29.2781L103.152 31.2168L102.432 33.73L103.08 35.8602L102.36 44.0939L102.216 45.1949L101.616 46.4635L101.088 49.2878L101.28 50.6521L102.144 52.7344L102.744 58.0241L101.304 60.4894L100.536 61.375V62.6675L102.72 67.8613L104.856 72.1697L105.216 73.3425L105.696 76.0232L105.816 78.4646L106.776 79.8288L106.944 82.8207L105.216 84.4244L100.776 86.5307L99.72 86.3392L99.3839 85.1664L98.9041 84.3766L97.8 84.1612L96.9839 84.592L96.264 85.2861L93.12 91.5331L93.8399 92.9213L95.6161 94.4532L96.024 95.3627L93.744 102.615L93.2399 103.572L92.9281 104.578L92.7839 105.559L93.144 109.149L93.744 111.543L93.864 113.386L94.032 117.742L93.936 118.987L93.624 120.495L93.192 121.524L92.952 122.433L92.832 124.731L93.456 126.287L94.824 128.585L95.688 129.327L97.512 130.116L98.88 130.092L99.8399 130.14L101.976 130.356L103.08 130.643L106.344 132.653L106.56 137.417L106.32 138.302L105.672 138.757L104.424 138.446L100.992 139.595L99.8399 142.467L99.648 145.578L102.6 147.78L107.616 152.52L108 155.535L107.568 156.612L105.408 158.049L104.736 158.312L104.016 158.719V160.083L105.768 162.716L107.736 164.942L105.168 163.745L104.016 163.793L99.2161 166.139L98.736 168.029L93.9601 168.556L93.696 166.713L93.0721 165.445L91.944 164.008L90.936 163.314L89.4 163.171L88.68 162.859L86.064 158.503L85.896 156.517L84.264 155.87L83.136 156.66L81.6721 158.168L80.544 159.844L80.064 161.711L73.464 160.586L71.3281 160.035L70.632 159.485L68.376 159.437V157.498L67.8481 159.102L67.2721 159.054L66.408 158.719L65.112 157.354L63.408 157.69L61.92 158.719L61.776 157.091L62.0161 151.586L59.736 146.153L59.4 145.076L60.576 139.068L61.2959 138.23L62.6161 137.345L63.6 136.746L64.392 136.292L65.088 136.052L66.288 135.526L66.2399 132.127L65.6399 130.164L65.9041 129.015L67.2721 126.478L68.4959 125.09L69.624 125.138L72.024 126.765L72.12 120.471L71.064 119.154L70.056 118.532L69.0721 117.527L68.544 116.186L68.064 113.482L68.0161 111.016L68.1839 104.506L69.3839 101.466L70.152 101.155L73.2 101.323L74.1839 101.514L74.9041 102.447L77.568 104.195L78.576 104.482L79.008 103.908L78.144 102.495L76.536 102.065L75.432 101.538L74.064 100.413L68.4481 91.7007L70.1041 89.738L71.7839 88.5173L76.8 86.9137L77.88 87.512L78.864 89.3072L78.8399 90.3124L81.936 99.288L82.536 99.7428L83.0161 98.9051L82.7281 95.4824L81.5281 89.4029L81.0721 87.4402L80.6399 84.0893L80.712 82.8207L80.9281 81.0735L81.168 79.8528L81.48 78.704L81.576 77.2439L80.952 76.7652L79.488 76.7891L78.312 78.1295L76.08 79.4459L71.7839 78.7997L69.144 77.3635L67.7281 75.353L68.0161 74.1802L69.8399 71.2841L75 66.0423L76.4161 66.0902L77.568 66.3295L81.0959 65.4918L83.4959 64.295L85.392 62.5957L85.992 61.8537L86.7601 52.7823L85.512 53.2371L84.312 61.3271L83.544 62.7632L81.0959 63.9839L77.592 65.1328L76.4399 65.1567L75.648 64.8216L74.28 63.7446L73.2721 60.7048L72.12 59.0772L69.864 56.3965L68.544 55.6545L65.4 54.8646L62.7839 55.6545L61.656 56.1332L59.544 59.4602L60.024 61.2553L60.6721 61.8537L61.152 64.5104L58.752 67.0237L56.4959 68.723L55.344 68.9145L52.944 68.364L51.8399 68.005L49.5839 68.0768L48.912 68.364L47.256 69.1538L46.344 69.465L45.768 69.489L43.584 68.1007L39.528 67.2869L37.752 67.1911L38.28 63.7206L39.816 61.3989L40.44 60.9681L41.568 60.9202L42.696 61.0877L43.968 60.7048L46.2 56.5641L45.144 57.5693L44.448 59.1251L43.776 60.0346L42.792 60.3458L38.688 59.9388L36.6 58.5985L33.432 54.745L33.36 53.0695L33.984 51.6095L33.864 48.5697L33.456 46.8225L32.28 43.5194L31.2 42.1551L30.672 41.0063L29.976 36.6979L29.232 31.6477L30.864 26.741L34.776 16.2096L36.336 14.1751L37.728 11.1832L37.464 9.53167L36.504 7.09032L37.944 0.55603Z" stroke="white" stroke-width="2" mask="url(#path-1-inside-1_95_3255)"/>
</svg>
