<svg width="158" height="138" viewBox="0 0 158 138" fill="none" xmlns="http://www.w3.org/2000/svg">
<path d="M75.5312 1.05603L83.3896 2.98962L87.5928 4.54236L90.8584 7.63611L91.9482 11.4154L91.9707 11.4935L92.0176 11.5609L94.9219 15.766L95.0557 15.9594L95.29 15.9799L97.3057 16.1576L97.5127 16.1761L97.6719 16.0414L102.96 11.5619L104.513 11.7494L110.258 18.1263L110.329 18.2054L110.427 18.2494L119.082 22.099L119.374 22.2289L119.614 22.0189L126.628 15.8949L130.393 13.8568L131.34 15.7494L130.828 20.184L130.009 23.1683L129.979 23.2767L129.998 23.3881L130.473 26.0531L130.491 26.1566L130.55 26.2435L138.553 38.2084L138.728 38.4701L139.039 38.4252L141.114 38.1293L141.36 38.0941L141.48 37.8783L143.168 34.8549L145.378 32.5902L147.17 32.2836L149.319 33.0004L155.129 36.2435L157.484 46.8011L156.836 49.1205L154.716 51.5824L154.666 51.64L154.636 51.7103L149.537 63.4974L149.51 63.5609L149.5 63.6302L146.536 86.1381L146.531 86.1732V86.2094L146.591 91.1254L146.592 91.1849L146.606 91.2426L148.261 97.7377L151.28 118.496L151.281 118.506L151.283 118.517L153.835 132.129L148.306 136.273L144.629 135.995L142.717 135.474L142.658 135.458L142.598 135.456L140.167 135.398L140.112 135.396L140.059 135.407L136.441 136.118L136.354 136.135L136.276 136.182L135.472 136.676L135.438 135.41L135.436 135.345L135.417 135.283L134.824 133.269L134.775 133.105L134.637 133.004L132.503 131.464L132.452 131.428L132.395 131.405L128.467 129.847L125.913 127.129L125.538 125.258L125.832 118.624L125.836 118.553L125.818 118.484L124.811 114.338L124.769 114.165L124.627 114.058L123.146 112.932L122.994 112.818L122.805 112.832L120.492 113.01L120.352 113.021L120.237 113.103L117.939 114.766L116.161 115.237L110.771 113.406L111.479 108.666L111.497 108.555L111.464 108.448L108.144 97.4896L108.104 97.3568L108.001 97.264L106.104 95.5463L106.027 95.4769L105.929 95.4437L102.965 94.4369L102.887 94.4105H99.7461L99.6582 94.4437L89.7568 98.2943L89.7129 98.3109L89.6738 98.3363L86.457 100.343L80.5137 100.8L78.2979 100.063L78.0752 99.9886L77.876 100.113L70.9395 104.437L70.875 104.477L70.8252 104.535L59.7383 117.387L59.6445 117.495L59.623 117.638L59.2676 119.948L59.2588 120.002L59.2627 120.058L59.5283 123.897L53.0576 125.389L45.168 125.62L45.1602 125.617L38.3564 115.655L38.2744 115.535L38.1416 115.478L27.6865 110.984L22.4355 101.305L22.2842 101.027L21.9678 101.044L8.44531 101.808L1.0752 98.7797L4.77637 96.3969L4.93359 96.2953L4.98535 96.1166L7.61035 87.1644L9.0625 87.1176L13.7881 87.35L17.9961 88.6361L18.083 88.6625L18.1738 88.6566L20.96 88.4789L21.1582 88.4662L21.2939 88.3217L25.4434 83.8793L25.5293 83.7875L25.5615 83.6664L29.2373 69.806L29.2803 69.6439L29.2178 69.4886L26.0947 61.8383L24.8672 55.0062L24.917 53.3412L26.9121 52.2924L26.9805 52.2562L27.0342 52.2015L32.9629 46.2191L32.9844 46.1976L33.0039 46.1732L35.6123 42.7972L35.668 42.725L35.6943 42.6381L36.4053 40.3285L36.4297 40.2504L36.4277 40.1683L36.2529 33.1908L37.2031 31.392L42.1357 30.5521L47.2637 30.434L47.4102 30.431L47.5322 30.349L53.4014 26.3802L53.6279 26.2269L53.6211 25.9545L53.3252 13.3969L53.3232 13.3451L53.3115 13.2953L52.2686 8.84119L52.9668 5.45935L54.4443 4.74646L64.0635 1.05603H75.5312Z" stroke="white"/>
</svg>
