<svg width="219" height="33" viewBox="0 0 219 33" fill="none" xmlns="http://www.w3.org/2000/svg">
<path d="M218.145 32.3342C216.381 32.307 214.942 32.117 213.829 31.7642C212.743 31.4113 211.875 30.9227 211.223 30.2984C210.599 29.6469 210.165 28.8733 209.92 27.9775C209.703 27.0546 209.594 26.0231 209.594 24.8831V1.30821L215.661 0.331017V23.6616C215.661 24.2045 215.702 24.6931 215.783 25.1274C215.865 25.5617 216.014 25.9281 216.231 26.2267C216.476 26.5253 216.815 26.7696 217.249 26.9596C217.683 27.1496 218.267 27.2718 219 27.3261L218.145 32.3342Z" fill="white"/>
<path d="M204.895 21.1778C204.895 22.8608 204.651 24.408 204.162 25.8195C203.673 27.2039 202.968 28.3982 202.045 29.4026C201.122 30.3798 200.009 31.1398 198.706 31.6827C197.43 32.2256 195.992 32.497 194.39 32.497C192.816 32.497 191.377 32.2256 190.074 31.6827C188.798 31.1398 187.699 30.3798 186.776 29.4026C185.853 28.3982 185.134 27.2039 184.618 25.8195C184.102 24.408 183.844 22.8608 183.844 21.1778C183.844 19.4949 184.102 17.9612 184.618 16.5769C185.161 15.1925 185.894 14.0117 186.817 13.0345C187.767 12.0573 188.88 11.2973 190.156 10.7544C191.458 10.2115 192.87 9.94009 194.39 9.94009C195.937 9.94009 197.349 10.2115 198.625 10.7544C199.927 11.2973 201.04 12.0573 201.963 13.0345C202.886 14.0117 203.606 15.1925 204.121 16.5769C204.637 17.9612 204.895 19.4949 204.895 21.1778ZM198.706 21.1778C198.706 19.3049 198.326 17.8391 197.566 16.7805C196.833 15.6947 195.774 15.1518 194.39 15.1518C193.006 15.1518 191.933 15.6947 191.173 16.7805C190.413 17.8391 190.033 19.3049 190.033 21.1778C190.033 23.0508 190.413 24.5437 191.173 25.6567C191.933 26.7424 193.006 27.2853 194.39 27.2853C195.774 27.2853 196.833 26.7424 197.566 25.6567C198.326 24.5437 198.706 23.0508 198.706 21.1778Z" fill="white"/>
<path d="M180.163 21.1778C180.163 22.8608 179.918 24.408 179.43 25.8195C178.941 27.2039 178.235 28.3982 177.313 29.4026C176.39 30.3798 175.277 31.1398 173.974 31.6827C172.698 32.2256 171.259 32.497 169.658 32.497C168.084 32.497 166.645 32.2256 165.342 31.6827C164.066 31.1398 162.967 30.3798 162.044 29.4026C161.121 28.3982 160.402 27.2039 159.886 25.8195C159.37 24.408 159.112 22.8608 159.112 21.1778C159.112 19.4949 159.37 17.9612 159.886 16.5769C160.429 15.1925 161.162 14.0117 162.085 13.0345C163.035 12.0573 164.148 11.2973 165.423 10.7544C166.726 10.2115 168.138 9.94009 169.658 9.94009C171.205 9.94009 172.617 10.2115 173.892 10.7544C175.195 11.2973 176.308 12.0573 177.231 13.0345C178.154 14.0117 178.873 15.1925 179.389 16.5769C179.905 17.9612 180.163 19.4949 180.163 21.1778ZM173.974 21.1778C173.974 19.3049 173.594 17.8391 172.834 16.7805C172.101 15.6947 171.042 15.1518 169.658 15.1518C168.274 15.1518 167.201 15.6947 166.441 16.7805C165.681 17.8391 165.301 19.3049 165.301 21.1778C165.301 23.0508 165.681 24.5437 166.441 25.6567C167.201 26.7424 168.274 27.2853 169.658 27.2853C171.042 27.2853 172.101 26.7424 172.834 25.6567C173.594 24.5437 173.974 23.0508 173.974 21.1778Z" fill="white"/>
<path d="M136.154 31.927V1.30821L142.22 0.331017V10.5916C142.628 10.4559 143.143 10.3337 143.768 10.2251C144.419 10.0894 145.043 10.0215 145.641 10.0215C147.378 10.0215 148.817 10.2658 149.957 10.7544C151.124 11.2159 152.047 11.8809 152.725 12.7495C153.431 13.6182 153.92 14.6497 154.191 15.844C154.49 17.0384 154.639 18.3684 154.639 19.8342V31.927H148.572V20.5671C148.572 18.6127 148.314 17.2284 147.799 16.414C147.31 15.5997 146.387 15.1925 145.03 15.1925C144.487 15.1925 143.971 15.2468 143.483 15.3554C143.021 15.4368 142.6 15.5318 142.22 15.6404V31.927H136.154Z" fill="white"/>
<path d="M114.778 21.2186C114.778 19.6713 115.022 18.2191 115.51 16.8619C116.026 15.4775 116.759 14.2832 117.709 13.2788C118.659 12.2474 119.813 11.433 121.17 10.8359C122.527 10.2387 124.075 9.94009 125.812 9.94009C126.952 9.94009 127.997 10.0487 128.947 10.2658C129.897 10.4558 130.82 10.7408 131.716 11.1209L130.453 15.9661C129.883 15.749 129.259 15.559 128.58 15.3961C127.902 15.2332 127.142 15.1518 126.3 15.1518C124.509 15.1518 123.165 15.7083 122.269 16.8212C121.401 17.9341 120.966 19.3999 120.966 21.2186C120.966 23.1458 121.374 24.6387 122.188 25.6974C123.029 26.756 124.482 27.2853 126.545 27.2853C127.278 27.2853 128.065 27.2175 128.906 27.0817C129.748 26.946 130.521 26.7289 131.227 26.4303L132.082 31.3977C131.376 31.6963 130.494 31.9541 129.436 32.1713C128.377 32.3885 127.21 32.497 125.934 32.497C123.98 32.497 122.297 32.212 120.885 31.642C119.474 31.0448 118.306 30.244 117.383 29.2397C116.488 28.2354 115.823 27.0546 115.388 25.6974C114.981 24.313 114.778 22.8201 114.778 21.2186Z" fill="white"/>
<path d="M100.2 27.0817C101.096 27.0817 101.828 27.0139 102.398 26.8782C102.996 26.7153 103.471 26.5117 103.824 26.2674C104.176 25.996 104.421 25.6838 104.556 25.3309C104.692 24.9781 104.76 24.5845 104.76 24.1502C104.76 23.2272 104.326 22.4672 103.457 21.87C102.588 21.2457 101.096 20.5807 98.9783 19.8749C98.0554 19.5492 97.1325 19.1827 96.2095 18.7756C95.2866 18.3413 94.4587 17.812 93.7258 17.1876C92.9929 16.5362 92.3958 15.7626 91.9343 14.8668C91.4729 13.9439 91.2421 12.831 91.2421 11.528C91.2421 10.2251 91.4864 9.05791 91.975 8.02642C92.4636 6.96779 93.1558 6.07203 94.0516 5.33913C94.9473 4.60623 96.0331 4.04978 97.3089 3.66975C98.5847 3.26259 100.023 3.05901 101.625 3.05901C103.525 3.05901 105.167 3.26259 106.552 3.66975C107.936 4.07692 109.076 4.5248 109.972 5.0134L108.139 10.0215C107.352 9.61436 106.47 9.26149 105.493 8.9629C104.543 8.63717 103.389 8.4743 102.032 8.4743C100.512 8.4743 99.4126 8.69146 98.734 9.12577C98.0825 9.53293 97.7568 10.1708 97.7568 11.0394C97.7568 11.5552 97.8789 11.9895 98.1232 12.3424C98.3675 12.6952 98.7068 13.021 99.1411 13.3196C99.6026 13.591 100.118 13.8489 100.688 14.0932C101.286 14.3103 101.937 14.5411 102.643 14.7854C104.109 15.3282 105.384 15.8711 106.47 16.414C107.556 16.9298 108.452 17.5405 109.157 18.2463C109.89 18.952 110.433 19.7799 110.786 20.73C111.139 21.68 111.315 22.8337 111.315 24.1909C111.315 26.8239 110.392 28.8733 108.547 30.3391C106.701 31.7777 103.919 32.497 100.2 32.497C98.9511 32.497 97.8246 32.4156 96.8203 32.2527C95.816 32.117 94.9202 31.9406 94.133 31.7234C93.373 31.5063 92.7079 31.2755 92.1379 31.0312C91.595 30.7869 91.1336 30.5562 90.7535 30.3391L92.5451 25.2902C93.3865 25.7517 94.418 26.1724 95.6395 26.5524C96.8882 26.9053 98.4082 27.0817 100.2 27.0817Z" fill="white"/>
<path d="M68.1206 31.927V1.30821L74.1874 0.331017V10.5916C74.5945 10.4559 75.1103 10.3337 75.7346 10.2251C76.3861 10.0894 77.0104 10.0215 77.6075 10.0215C79.3448 10.0215 80.7834 10.2658 81.9235 10.7544C83.0907 11.2159 84.0136 11.8809 84.6922 12.7495C85.398 13.6182 85.8866 14.6497 86.158 15.844C86.4566 17.0384 86.6059 18.3684 86.6059 19.8342V31.927H80.5391V20.5671C80.5391 18.6127 80.2813 17.2284 79.7655 16.414C79.2769 15.5997 78.354 15.1925 76.9968 15.1925C76.4539 15.1925 75.9382 15.2468 75.4496 15.3554C74.9881 15.4368 74.5674 15.5318 74.1874 15.6404V31.927H68.1206Z" fill="white"/>
<path d="M46.7444 21.2186C46.7444 19.6713 46.9887 18.2191 47.4773 16.8619C47.993 15.4775 48.7259 14.2832 49.676 13.2788C50.626 12.2474 51.7797 11.433 53.1369 10.8359C54.4941 10.2387 56.0413 9.94009 57.7786 9.94009C58.9186 9.94009 59.9637 10.0487 60.9137 10.2658C61.8638 10.4558 62.7867 10.7408 63.6824 11.1209L62.4202 15.9661C61.8502 15.749 61.2259 15.559 60.5473 15.3961C59.8687 15.2332 59.1086 15.1518 58.2672 15.1518C56.4756 15.1518 55.132 15.7083 54.2362 16.8212C53.3676 17.9341 52.9333 19.3999 52.9333 21.2186C52.9333 23.1458 53.3405 24.6387 54.1548 25.6974C54.9963 26.756 56.4485 27.2853 58.5115 27.2853C59.2444 27.2853 60.0315 27.2175 60.873 27.0817C61.7145 26.946 62.4881 26.7289 63.1939 26.4303L64.0489 31.3977C63.3431 31.6963 62.461 31.9541 61.4023 32.1713C60.3437 32.3885 59.1765 32.497 57.9007 32.497C55.9463 32.497 54.2634 32.212 52.8519 31.642C51.4404 31.0448 50.2731 30.244 49.3502 29.2397C48.4545 28.2354 47.7894 27.0546 47.3551 25.6974C46.948 24.313 46.7444 22.8201 46.7444 21.2186Z" fill="white"/>
<path d="M22.9667 21.3814C22.9667 19.4813 23.2517 17.8255 23.8217 16.414C24.4189 14.9754 25.1925 13.781 26.1426 12.831C27.0926 11.8809 28.1784 11.1616 29.3999 10.673C30.6485 10.1844 31.9243 9.94009 33.2272 9.94009C36.2674 9.94009 38.6697 10.8766 40.4341 12.7495C42.1984 14.5953 43.0806 17.3233 43.0806 20.9335C43.0806 21.2864 43.0671 21.68 43.0399 22.1143C43.0128 22.5215 42.9856 22.8879 42.9585 23.2137H29.1963C29.332 24.4623 29.9156 25.4531 30.9471 26.186C31.9786 26.9189 33.363 27.2853 35.1002 27.2853C36.2131 27.2853 37.2989 27.1903 38.3575 27.0003C39.4433 26.7831 40.3255 26.5253 41.0041 26.2267L41.8184 31.1534C41.4927 31.3163 41.0584 31.4791 40.5155 31.642C39.9726 31.8048 39.3619 31.9406 38.6832 32.0491C38.0318 32.1849 37.326 32.2934 36.566 32.3749C35.8059 32.4563 35.0459 32.497 34.2859 32.497C32.3586 32.497 30.6757 32.212 29.237 31.642C27.8255 31.072 26.6447 30.2983 25.6947 29.3211C24.7718 28.3168 24.0796 27.136 23.6181 25.7788C23.1838 24.4216 22.9667 22.9558 22.9667 21.3814ZM37.2175 19.0606C37.1903 18.5448 37.0953 18.0427 36.9324 17.5541C36.7967 17.0655 36.566 16.6312 36.2403 16.2511C35.9417 15.8711 35.5481 15.559 35.0595 15.3147C34.598 15.0704 34.0144 14.9482 33.3087 14.9482C32.6301 14.9482 32.0465 15.0704 31.5579 15.3147C31.0693 15.5318 30.6621 15.8304 30.3364 16.2104C30.0106 16.5904 29.7528 17.0383 29.5627 17.5541C29.3999 18.0427 29.2777 18.5448 29.1963 19.0606H37.2175Z" fill="white"/>
<path d="M23.3713 3.71049V9.12579H14.8615V31.927H8.50975V9.12579H0V3.71049H23.3713Z" fill="white"/>
</svg>
