<svg width="132" height="159" viewBox="0 0 132 159" fill="none" xmlns="http://www.w3.org/2000/svg">
<mask id="path-1-inside-1_95_3234" fill="white">
<path d="M32.8189 12.4412L35.7189 12.5867L50.0258 9.28801L51.5242 8.31773L54.8108 4.63093L56.9375 1.18662L77.9143 0.55603L82.6512 3.46664L82.9412 6.13476L83.038 8.12372L86.2279 10.4522L89.3697 10.9858L91.2061 10.9374L92.6564 10.9858L94.5412 11.568L96.4747 13.2174L97.5382 17.0983L98.1182 18.9416L100.051 20.1059L106.528 19.2812L107.06 20.8336L111.796 22.9196L112.715 25.4906L117.983 36.4056L118.515 38.8796L118.128 41.8873L120.883 44.9435L125.185 49.261L131.372 57.3138L132 64.1538L129.052 69.1019L127.119 75.0688L123.638 79.7258L121.705 83.5096L118.225 85.4016L112.473 90.4467L105.416 87.2935L100.631 81.9573L99.0365 81.7632L94.5896 85.5472L92.9464 85.4016L90.5781 81.9573L89.6597 78.7556L86.8563 76.039L83.328 74.7777L76.8995 73.1283H67.3775L59.451 76.1845L58.0491 76.9122L57.4208 79.9684L58.2907 83.6552L58.5807 93.9395L53.7957 97.1898L49.5907 97.2868L45.2889 98.0144L44.3708 99.7608L44.5157 105.582L43.9357 107.474L41.8574 110.239L36.9756 115.09L35.1389 116.06L35.0905 117.71L36.1056 123.386L38.7155 129.741L35.7189 141.044L32.3354 144.682L30.0639 144.827L26.5837 143.76L22.6686 143.615L21.1703 143.663L18.9471 151.279L12.4702 155.5L10.0535 158.556L7.63685 158.119L5.02692 157.537L3.23859 156.034L0 156.13L2.07862 148.563L4.44694 142.936L6.28365 142.256L8.70035 141.771L10.6819 140.753L13.0986 138.618L14.3553 135.368L14.7421 133.718L15.1769 131.099L15.8053 124.841L12.0354 109.754L11.2135 100.197L7.78199 87.9241L8.45844 86.4203L11.7454 86.6143L20.5903 80.0654L23.7805 71.0909L25.4721 59.8848L28.3239 54.2576L29.0971 51.8806L29.3871 49.358L29.4355 37.6668L31.8522 29.7596L27.502 22.1919L24.6505 17.8744L22.7654 12.9748L24.3121 11.2769L25.9072 10.2097L27.8404 10.1612L30.9822 11.762L32.8189 12.4412Z"/>
</mask>
<path d="M32.8189 12.4412L35.7189 12.5867L50.0258 9.28801L51.5242 8.31773L54.8108 4.63093L56.9375 1.18662L77.9143 0.55603L82.6512 3.46664L82.9412 6.13476L83.038 8.12372L86.2279 10.4522L89.3697 10.9858L91.2061 10.9374L92.6564 10.9858L94.5412 11.568L96.4747 13.2174L97.5382 17.0983L98.1182 18.9416L100.051 20.1059L106.528 19.2812L107.06 20.8336L111.796 22.9196L112.715 25.4906L117.983 36.4056L118.515 38.8796L118.128 41.8873L120.883 44.9435L125.185 49.261L131.372 57.3138L132 64.1538L129.052 69.1019L127.119 75.0688L123.638 79.7258L121.705 83.5096L118.225 85.4016L112.473 90.4467L105.416 87.2935L100.631 81.9573L99.0365 81.7632L94.5896 85.5472L92.9464 85.4016L90.5781 81.9573L89.6597 78.7556L86.8563 76.039L83.328 74.7777L76.8995 73.1283H67.3775L59.451 76.1845L58.0491 76.9122L57.4208 79.9684L58.2907 83.6552L58.5807 93.9395L53.7957 97.1898L49.5907 97.2868L45.2889 98.0144L44.3708 99.7608L44.5157 105.582L43.9357 107.474L41.8574 110.239L36.9756 115.09L35.1389 116.06L35.0905 117.71L36.1056 123.386L38.7155 129.741L35.7189 141.044L32.3354 144.682L30.0639 144.827L26.5837 143.76L22.6686 143.615L21.1703 143.663L18.9471 151.279L12.4702 155.5L10.0535 158.556L7.63685 158.119L5.02692 157.537L3.23859 156.034L0 156.13L2.07862 148.563L4.44694 142.936L6.28365 142.256L8.70035 141.771L10.6819 140.753L13.0986 138.618L14.3553 135.368L14.7421 133.718L15.1769 131.099L15.8053 124.841L12.0354 109.754L11.2135 100.197L7.78199 87.9241L8.45844 86.4203L11.7454 86.6143L20.5903 80.0654L23.7805 71.0909L25.4721 59.8848L28.3239 54.2576L29.0971 51.8806L29.3871 49.358L29.4355 37.6668L31.8522 29.7596L27.502 22.1919L24.6505 17.8744L22.7654 12.9748L24.3121 11.2769L25.9072 10.2097L27.8404 10.1612L30.9822 11.762L32.8189 12.4412Z" stroke="white" stroke-width="2" mask="url(#path-1-inside-1_95_3234)"/>
</svg>
