<svg width="163" height="161" viewBox="0 0 163 161" fill="none" xmlns="http://www.w3.org/2000/svg">
<path d="M73.5899 55.7797C75.8189 56.6713 78.4937 55.3339 79.1624 52.882L94.9885 5.84969C95.8801 3.62067 94.5427 0.945849 92.0908 0.277143C89.8617 -0.614465 87.1869 0.722947 86.5182 3.17487L70.6922 50.2072C69.8006 52.4362 71.138 55.111 73.5899 55.7797Z" fill="white"/>
<path d="M136.894 67.8165V39.285L152.72 32.375C154.28 31.7063 155.395 30.146 155.395 28.3628C155.395 26.5796 154.503 25.0193 152.943 24.3506L112.375 4.28939C110.146 3.17488 107.471 4.28939 106.356 6.29551C105.242 8.52453 106.356 11.1994 108.363 12.3139L140.46 28.1399L108.585 41.9598C106.356 42.8514 105.242 45.5263 106.356 47.7553C107.248 49.9843 109.923 51.0988 112.152 49.9843L127.978 43.0743V64.9187L82.9518 84.757L37.9256 64.9187V43.0743L53.7516 49.9843C55.9806 50.8759 58.6554 49.9843 59.5471 47.7553C60.4387 45.5263 59.5471 42.8514 57.318 41.9598L25.4431 28.1399L57.5409 12.3139C59.77 11.1994 60.6616 8.52453 59.5471 6.29551C58.4325 4.06649 55.7577 3.17488 53.5287 4.28939L12.9605 24.3506C11.4002 25.0193 10.5086 26.8025 10.5086 28.3628C10.5086 30.146 11.6231 31.7063 13.1834 32.375L29.0095 39.285V67.8165C29.0095 69.5997 30.124 71.16 31.6843 71.8287L81.1685 93.6731C81.8373 93.896 82.2831 94.1189 82.9518 94.1189C83.6205 94.1189 84.0663 94.1189 84.735 93.6731L134.219 71.8287C135.78 71.16 136.894 69.5997 136.894 67.8165Z" fill="white"/>
<path d="M162.082 116.409C161.413 115.517 160.522 115.072 159.184 114.849C155.841 114.18 153.835 113.288 152.943 111.951C152.497 111.505 152.274 110.614 152.274 108.83V90.5525C152.274 86.3173 151.16 83.1967 148.485 81.1906C146.479 79.6303 143.358 78.9616 139.346 78.9616H138.231C137.117 78.9616 136.002 79.4074 135.334 80.299C134.665 81.1906 134.219 82.0822 134.219 83.1967C134.219 84.3112 134.665 85.2028 135.557 86.0944C136.448 86.7631 137.34 87.2089 138.231 87.2089H139.569C141.575 87.2089 142.689 87.6547 143.135 88.3234C143.135 88.3234 143.358 88.7692 143.358 89.8838V109.053C143.358 111.728 144.027 113.957 145.587 115.963C146.702 117.301 148.039 118.415 149.599 119.307C147.816 120.198 146.479 121.313 145.587 122.65C144.25 124.434 143.358 126.885 143.358 129.337V148.507C143.358 148.73 143.358 149.176 143.358 149.399C143.358 149.844 143.135 150.29 142.467 150.513C141.798 150.736 140.906 150.959 139.346 150.959H138.009C136.894 150.959 136.002 151.405 135.111 152.073C134.442 152.965 133.996 153.857 133.996 154.971C133.996 156.086 134.442 157.2 135.334 157.869C136.225 158.538 137.117 158.983 138.009 158.983H139.123C140.683 158.983 142.467 158.983 143.804 158.538C146.479 158.092 148.485 156.977 149.822 154.971C151.16 153.188 151.828 150.736 151.828 147.615V129.337C151.828 127.554 152.051 126.44 152.72 125.771C153.166 125.325 153.835 124.879 154.726 124.434C155.618 123.988 157.178 123.542 158.961 123.319C160.076 123.319 160.967 122.65 161.636 121.759C162.305 120.867 162.528 119.976 162.528 118.861C162.528 117.746 162.305 116.632 161.636 115.74L162.082 116.409Z" fill="white"/>
<path d="M18.5331 116.186C19.8705 114.403 20.0934 111.728 20.0934 109.276V90.1067C20.0934 89.8838 20.0934 89.438 20.0934 89.215C20.0934 88.7692 20.3163 88.3234 20.985 88.1005C21.6537 87.8776 22.5453 87.6547 24.1056 87.6547H25.443C26.5576 87.6547 27.4492 87.2089 28.3408 86.5402C29.0095 85.6486 29.4553 84.757 29.4553 83.6425C29.4553 82.528 29.0095 81.4135 28.1179 80.7448C27.2263 80.0761 26.3347 79.6303 25.443 79.6303H24.3285C22.7682 79.6303 20.985 79.6303 19.6476 80.0761C16.9728 80.5219 14.9667 81.6364 13.6292 83.6425C12.2918 85.4257 11.6231 87.8776 11.6231 90.9983V109.276C11.6231 111.059 11.4002 112.174 10.7315 112.843C10.2857 113.288 9.61701 113.734 8.7254 114.18C7.83379 114.626 6.27348 115.072 4.49026 115.295C3.37575 115.295 2.48414 115.963 1.81544 116.855C1.14673 117.747 0.923828 118.638 0.923828 119.753C0.923828 120.867 1.14673 121.982 1.81544 122.873C2.48414 123.765 3.37575 124.211 4.71316 124.434C8.05669 125.102 10.0628 125.994 10.9544 127.331C11.4002 127.777 11.6231 128.669 11.6231 130.452V148.73C11.6231 152.965 12.7376 156.086 15.4125 158.092C17.4186 159.652 20.5392 160.321 24.5514 160.321H25.6659C26.7805 160.321 27.895 159.875 28.5637 158.983C29.2324 158.092 29.6782 157.2 29.6782 156.086C29.6782 154.971 29.2324 154.08 28.3408 153.188C27.4492 152.519 26.5576 152.073 25.6659 152.073H24.3285C22.3224 152.073 21.2079 151.628 20.7621 150.959C20.7621 150.959 20.5392 150.513 20.5392 149.399V130.229C20.5392 127.554 19.8705 125.325 18.3102 123.319C17.1957 121.982 15.8583 120.867 14.2979 119.976C16.0812 119.084 17.4186 117.969 18.3102 116.632L18.5331 116.186Z" fill="white"/>
<path d="M51.7455 136.024C57.2852 136.024 61.7761 128.54 61.7761 119.307C61.7761 110.074 57.2852 102.589 51.7455 102.589C46.2057 102.589 41.7149 110.074 41.7149 119.307C41.7149 128.54 46.2057 136.024 51.7455 136.024Z" fill="white"/>
<path d="M114.158 136.024C119.698 136.024 124.189 128.54 124.189 119.307C124.189 110.074 119.698 102.589 114.158 102.589C108.618 102.589 104.127 110.074 104.127 119.307C104.127 128.54 108.618 136.024 114.158 136.024Z" fill="white"/>
</svg>
